<?xml version="1.0" encoding="UTF-8" standalone="no"?>
<!-- Created with Inkscape (http://www.inkscape.org/) -->

<svg
   width="201.84381mm"
   height="188.72226mm"
   viewBox="0 0 201.84381 188.72226"
   version="1.1"
   id="svg1"
   xml:space="preserve"
   xmlns="http://www.w3.org/2000/svg"
   xmlns:svg="http://www.w3.org/2000/svg"><defs
     id="defs1"><linearGradient
       id="swatch4"><stop
         style="stop-color:#ffffff;stop-opacity:1;"
         offset="0"
         id="stop4" /></linearGradient></defs><g
     id="g16"
     style="display:inline"
     transform="matrix(1.4074924,0,0,1.4074924,-45.506868,-138.05016)"><g
       id="g2"><g
         id="g15"
         style="display:inline"><path
           style="display:inline;opacity:1;fill:#f1f1f1;fill-opacity:1;fill-rule:nonzero;stroke:none;stroke-width:0.553;stroke-dasharray:none;stroke-opacity:1"
           d="m 37.307284,169.77982 -4.975407,25.43152 h 30.160949 l 6.602181,-33.66565 z"
           id="path15" /><path
           style="display:inline;opacity:1;fill:#f1f1f1;fill-opacity:1;fill-rule:nonzero;stroke:none;stroke-width:0.553;stroke-dasharray:none;stroke-opacity:1"
           d="m 89.244165,156.96665 -7.397481,38.24469 h 30.387296 l 9.33896,-46.4783 z"
           id="path14" /><path
           style="display:inline;opacity:1;fill:#f1f1f1;fill-opacity:1;fill-rule:nonzero;stroke:none;stroke-width:0.553;stroke-dasharray:none;stroke-opacity:1"
           d="m 141.53761,143.87391 -9.76891,51.33743 h 30.56816 c 0,0 8.75349,-41.35246 11.87886,-58.56955 z"
           id="path13" /></g><path
         style="display:inline;opacity:1;fill:#1810f2;fill-opacity:1;fill-rule:nonzero;stroke:none;stroke-width:0.553;stroke-dasharray:none;stroke-opacity:1"
         d="M 104.23188,98.084969 C 95.314263,98.200783 85.528454,102.15736 78.771936,110.06357 L 79.947575,99.753601 H 51.007222 l -13.699938,70.026219 33.014522,-14.49059 5.375382,-27.40918 c 1.25486,-6.39891 20.918489,-9.02448 19.17299,0 l -5.626013,29.0866 33.580895,-14.49111 -0.74517,3.73621 3.81062,-18.96474 c 0.99223,-4.93814 20.54021,-9.08609 18.81125,0 l -3.16415,16.6269 33.57211,-12.58838 c 0.0144,-0.1015 0.0571,-0.32718 0.0698,-0.42117 5.89608,-43.758855 -36.4954,-36.378802 -49.64607,-18.53065 -2.20303,-9.57798 -11.1949,-14.379996 -21.30154,-14.248741 z"
         id="path6" /></g><g
       id="layer4"
       transform="matrix(0.71048342,0,0,0.71048342,14.420181,94.110301)"><text
         xml:space="preserve"
         style="font-style:normal;font-variant:normal;font-weight:normal;font-stretch:normal;font-size:22.0485px;font-family:Ubuntu;-inkscape-font-specification:Ubuntu;opacity:1;fill:#ffffff;stroke-width:0.557459"
         x="33.131958"
         y="171.90141"
         id="text2"><tspan
           id="tspan2"
           style="font-style:normal;font-variant:normal;font-weight:normal;font-stretch:normal;font-size:22.0485px;font-family:Ubuntu;-inkscape-font-specification:Ubuntu;fill:#ffffff;stroke-width:0.557459"
           x="33.131958"
           y="171.90141">Mathias Ringgaard</tspan></text><g
         id="g3"
         transform="translate(0.09810072,2.6458331)"><text
           xml:space="preserve"
           style="font-style:normal;font-variant:normal;font-weight:normal;font-stretch:normal;font-size:16.9333px;font-family:Ubuntu;-inkscape-font-specification:Ubuntu;opacity:1;fill:#ffffff;stroke-width:0.543186"
           x="69.722679"
           y="191.66705"
           id="text1"><tspan
             id="tspan1"
             style="font-style:normal;font-variant:normal;font-weight:300;font-stretch:normal;font-size:16.9333px;font-family:Ubuntu;-inkscape-font-specification:'Ubuntu Light';fill:#ffffff;stroke-width:0.543186"
             x="69.722679"
             y="191.66705">MOTORSPORT</tspan></text><rect
           style="display:inline;opacity:1;fill:#ffffff;stroke:none;stroke-width:0.278195"
           id="rect2"
           width="21.996838"
           height="0.98634619"
           x="43.670303"
           y="185.30649" /><rect
           style="opacity:1;fill:#ffffff;stroke:none;stroke-width:0.278195"
           id="rect3"
           width="21.996838"
           height="0.98634619"
           x="186.40161"
           y="185.30649" /></g></g></g></svg>
